<svg width="120" height="120" viewBox="0 0 120 120" fill="none" xmlns="http://www.w3.org/2000/svg">
<rect width="120" height="120" rx="32" fill="#49AD09" fill-opacity="0.1"/>
<path d="M54.1734 78.9616H42.4876C41.2234 78.9616 40.1751 77.9132 40.1751 76.6491V60.8624C40.1751 57.6558 42.7959 55.0346 46.0026 55.0346H54.1734C55.4376 55.0346 56.4859 56.0829 56.4859 57.3471V76.6179C56.4859 77.9129 55.4376 78.9616 54.1734 78.9616ZM44.8001 74.3366H51.8609V59.6907H46.0026C45.3551 59.6907 44.8001 60.2146 44.8001 60.8929V74.3366Z" fill="#49AD09"/>
<path d="M65.8263 78.9616H54.1404C52.8763 78.9616 51.828 77.9133 51.828 76.6491V46.8638C51.828 43.6572 54.4488 41.0363 57.6554 41.0363H62.3421C65.5488 41.0363 68.1696 43.6572 68.1696 46.8638V76.6491C68.1388 77.9133 67.1213 78.9616 65.8263 78.9616ZM56.4838 74.3366H63.5446V46.8638C63.5446 46.2163 63.0204 45.6613 62.3421 45.6613H57.6554C57.0079 45.6613 56.4529 46.1855 56.4529 46.8638V74.3366H56.4838Z" fill="#49AD09"/>
<path d="M77.5152 78.9616H65.8293C64.5652 78.9616 63.5168 77.9133 63.5168 76.6491V62.6196C63.5168 61.3555 64.5652 60.3071 65.8293 60.3071H74.0002C77.2068 60.3071 79.8277 62.928 79.8277 66.1346V76.6491C79.8277 77.9133 78.8102 78.9616 77.5152 78.9616ZM68.1418 74.3366H75.2027V66.1346C75.2027 65.4871 74.6785 64.9321 74.0002 64.9321H68.1418V74.3366Z" fill="#49AD09"/>
<path d="M69.25 93.1459H50.75C34.0075 93.1459 26.8542 85.9925 26.8542 69.25V50.75C26.8542 34.0075 34.0075 26.8542 50.75 26.8542H69.25C85.9925 26.8542 93.1458 34.0075 93.1458 50.75V69.25C93.1458 85.9925 85.9925 93.1459 69.25 93.1459ZM50.75 31.4792C36.5358 31.4792 31.4792 36.5359 31.4792 50.75V69.25C31.4792 83.4642 36.5358 88.5209 50.75 88.5209H69.25C83.4642 88.5209 88.5208 83.4642 88.5208 69.25V50.75C88.5208 36.5359 83.4642 31.4792 69.25 31.4792H50.75Z" fill="#49AD09"/>
</svg>
