<svg width="120" height="120" viewBox="0 0 120 120" fill="none" xmlns="http://www.w3.org/2000/svg">
<rect width="120" height="120" rx="32" fill="#49AD09" fill-opacity="0.1"/>
<path d="M50.7529 77.7288C50.4137 77.7288 50.0437 77.6363 49.7354 77.4822C47.3612 76.2797 45.3262 74.4913 43.8462 72.2713C42.6129 70.4213 42.6129 68.0472 43.8462 66.1972C45.3262 63.9772 47.3612 62.1888 49.7354 61.0172C50.8762 60.4313 52.2637 60.9247 52.8496 62.0655C53.4354 63.2063 52.9729 64.5938 51.8012 65.1797C50.1362 66.0122 48.7179 67.2763 47.7004 68.818C47.5154 69.0955 47.5154 69.4655 47.7004 69.7738C48.7179 71.3155 50.1362 72.5797 51.8012 73.4122C52.9421 73.998 53.4046 75.3855 52.8496 76.5263C52.4179 77.2663 51.5854 77.7288 50.7529 77.7288Z" fill="#49AD09"/>
<path d="M69.895 77.7288C69.0317 77.7288 68.23 77.2663 67.8292 76.4647C67.2434 75.3238 67.7059 73.9363 68.8775 73.3505C70.5425 72.518 71.9609 71.2538 72.9784 69.7122C73.1634 69.4347 73.1634 69.0647 72.9784 68.7563C71.9609 67.2147 70.5425 65.9505 68.8775 65.118C67.7367 64.5322 67.2742 63.1447 67.8292 62.0038C68.415 60.863 69.8025 60.4005 70.9434 60.9555C73.3175 62.158 75.3525 63.9463 76.8325 66.1663C78.0659 68.0163 78.0659 70.3905 76.8325 72.2405C75.3525 74.4605 73.3175 76.2488 70.9434 77.4205C70.5734 77.6363 70.2342 77.7288 69.895 77.7288Z" fill="#49AD09"/>
<path d="M69.25 93.1459H50.75C34.0075 93.1459 26.8542 85.9925 26.8542 69.25V50.75C26.8542 34.0075 34.0075 26.8542 50.75 26.8542H69.25C85.9925 26.8542 93.1458 34.0075 93.1458 50.75V69.25C93.1458 85.9925 85.9925 93.1459 69.25 93.1459ZM50.75 31.4792C36.5358 31.4792 31.4792 36.5359 31.4792 50.75V69.25C31.4792 83.4642 36.5358 88.5209 50.75 88.5209H69.25C83.4642 88.5209 88.5208 83.4642 88.5208 69.25V50.75C88.5208 36.5359 83.4642 31.4792 69.25 31.4792H50.75Z" fill="#49AD09"/>
<path d="M29.8773 50.01C28.6131 50.01 27.5648 48.9617 27.5648 47.6975C27.5648 46.4334 28.5823 45.385 29.8773 45.385L89.139 45.3542C90.4032 45.3542 91.4515 46.4025 91.4515 47.6667C91.4515 48.9309 90.434 49.9792 89.139 49.9792L29.8773 50.01Z" fill="#49AD09"/>
</svg>
